<?xml version="1.0" encoding="UTF-8" standalone="no"?>
<!-- Created with Inkscape (http://www.inkscape.org/) -->

<svg
   width="376"
   height="376"
   viewBox="0 0 99.483332 99.483333"
   version="1.1"
   id="svg308"
   inkscape:version="1.2.2 (b0a8486541, 2022-12-01)"
   sodipodi:docname="Ubuntu People.svg"
   inkscape:export-filename="../../../Code/Themes/vortex-ubuntu-plymouth-theme/vortex-ubuntu/logo.png"
   inkscape:export-xdpi="96"
   inkscape:export-ydpi="96"
   xmlns:inkscape="http://www.inkscape.org/namespaces/inkscape"
   xmlns:sodipodi="http://sodipodi.sourceforge.net/DTD/sodipodi-0.dtd"
   xmlns="http://www.w3.org/2000/svg"
   xmlns:svg="http://www.w3.org/2000/svg">
  <sodipodi:namedview
     id="namedview310"
     pagecolor="#ffffff"
     bordercolor="#666666"
     borderopacity="1.0"
     inkscape:showpageshadow="2"
     inkscape:pageopacity="0"
     inkscape:pagecheckerboard="true"
     inkscape:deskcolor="#d1d1d1"
     inkscape:document-units="px"
     showgrid="false"
     inkscape:zoom="0.49219345"
     inkscape:cx="-428.69323"
     inkscape:cy="358.59884"
     inkscape:window-width="1920"
     inkscape:window-height="1011"
     inkscape:window-x="0"
     inkscape:window-y="32"
     inkscape:window-maximized="1"
     inkscape:current-layer="g277" />
  <defs
     id="defs305" />
  <g
     inkscape:label="Layer 1"
     inkscape:groupmode="layer"
     id="layer1">
    <g
       id="g277"
       transform="matrix(0.45734222,0,0,0.45734222,-7.1305763,-69.626942)"
       style="fill:#ebebeb;fill-opacity:1">
      <g
         id="g300">
        <circle
           class="cls-3"
           cx="58.09"
           cy="255.92"
           r="26.299999"
           id="circle44"
           style="fill:#ebebeb;fill-opacity:1" />
        <circle
           class="cls-3"
           cx="167.63"
           cy="198.25"
           r="26.299999"
           id="circle46"
           style="fill:#ebebeb;fill-opacity:1" />
        <path
           class="cls-3"
           d="M 117.41,323.62 C 98.46,319.56 82.63,307.46 73.73,290.3 c -7.01,3.19 -14.9,4.16 -22.49,2.76 10.77,26.45 33.61,45.66 61.65,51.67 6.15,1.32 12.42,1.96 18.68,1.92 -4.83,-6.35 -7.52,-14.01 -7.7,-21.99 -2.17,-0.24 -4.33,-0.59 -6.45,-1.05 z"
           id="path48"
           style="fill:#ebebeb;fill-opacity:1" />
        <circle
           class="cls-3"
           cx="161.71001"
           cy="323.76001"
           r="26.299999"
           id="circle50"
           style="fill:#ebebeb;fill-opacity:1" />
        <path
           class="cls-3"
           d="m 198.31,314.1 c 8.18,-10.31 13.94,-22.5 16.71,-35.45 4.84,-22.59 0.32,-46.29 -12.4,-65.51 -3.03,7.14 -8.17,13.17 -14.79,17.32 7.1,13.38 9.26,28.82 6.08,43.67 -1.56,7.27 -4.31,14.12 -8.18,20.38 6.19,5.08 10.56,11.91 12.59,19.6 z"
           id="path52"
           style="fill:#ebebeb;fill-opacity:1" />
        <path
           class="cls-3"
           d="m 56.06,218.2 c 0.67,-0.04 1.34,-0.05 2,-0.05 2.66,0 5.31,0.28 7.94,0.85 4.29,0.92 8.32,2.54 12.01,4.84 11.84,-17.03 30.95,-27.25 51.65,-27.63 0.11,-1.99 0.38,-3.97 0.79,-5.92 1.21,-5.63 3.67,-10.9 7.19,-15.41 -33.08,-2.62 -65.22,14.45 -81.59,43.33 z"
           id="path54"
           style="fill:#ebebeb;fill-opacity:1" />
      </g>
    </g>
  </g>
</svg>
